<svg xmlns="http://www.w3.org/2000/svg" viewBox="0 0 512 512"><!--!Font Awesome Free 6.5.2 by @fontawesome - https://fontawesome.com License - https://fontawesome.com/license/free Copyright 2024 Fonticons, Inc.--><path fill="#2c7cba" d="M488 128h-8V80c0-44.8-99.2-80-224-80S32 35.2 32 80v48h-8c-13.3 0-24 10.7-24 24v80c0 13.3 10.8 24 24 24h8v160c0 17.7 14.3 32 32 32v32c0 17.7 14.3 32 32 32h32c17.7 0 32-14.3 32-32v-32h192v32c0 17.7 14.3 32 32 32h32c17.7 0 32-14.3 32-32v-32h6.4c16 0 25.6-12.8 25.6-25.6V256h8c13.3 0 24-10.8 24-24v-80c0-13.3-10.8-24-24-24zM112 400c-17.7 0-32-14.3-32-32s14.3-32 32-32 32 14.3 32 32-14.3 32-32 32zm16-112c-17.7 0-32-14.3-32-32V128c0-17.7 14.3-32 32-32h256c17.7 0 32 14.3 32 32v128c0 17.7-14.3 32-32 32H128zm272 112c-17.7 0-32-14.3-32-32s14.3-32 32-32 32 14.3 32 32-14.3 32-32 32z"/></svg>