<svg width="148" height="40" viewBox="0 0 148 40" fill="none" xmlns="http://www.w3.org/2000/svg">
<g id="Logo" clip-path="url(#clip0_1108_36141)">
<g id="Logo_2">
<path id="Vector" d="M27.4086 5.03439C27.3851 5.02842 27.3619 5.02596 27.3526 5C18.7049 5 10.0569 5 1.40918 5C1.22996 5.0614 1.04099 5.09684 0.873331 5.19017C0.428174 5.43789 0.142002 5.79929 0.0328809 6.28911C0.0267383 6.31648 0.0112012 6.34209 0 6.36841C0 14.7778 0 23.1868 0 31.5962C0.105508 31.959 0.256182 32.2955 0.560782 32.5495C0.878751 32.8148 1.24514 32.9534 1.66319 32.9583C2.00573 32.9622 2.34863 32.9643 2.69081 32.9565C2.81692 32.9537 2.85269 32.9892 2.8516 33.1123C2.84546 33.7425 2.85449 34.373 2.84727 35.0032C2.83643 35.9874 3.64616 36.847 4.59465 36.9712C4.6297 36.9758 4.66294 36.9902 4.69727 37C4.85372 37 5.01054 37 5.167 37C5.54169 36.9102 5.90266 36.7937 6.20401 36.5446C6.69975 36.1347 6.96352 35.6186 6.96713 34.9842C6.97075 34.3646 6.97111 33.7449 6.96533 33.1253C6.96424 33.0025 6.9852 32.9558 7.12901 32.9558C11.939 32.96 16.7494 32.96 21.5594 32.9558C21.7003 32.9558 21.7263 32.9976 21.7249 33.1236C21.7184 33.7257 21.7216 34.3277 21.722 34.9298C21.7223 35.9681 22.4114 36.7758 23.4614 36.9705C23.4831 36.9744 23.5022 36.9898 23.5228 37C23.7035 37 23.8842 37 24.0648 37C24.0811 36.9681 24.1132 36.9716 24.1418 36.9663C25.1391 36.7856 25.8411 35.9681 25.8411 34.9881C25.8411 34.3625 25.8447 33.7369 25.8382 33.1116C25.8368 32.9867 25.8762 32.9541 26.0005 32.9569C26.3314 32.9646 26.6628 32.9597 26.9938 32.9593C27.9603 32.9586 28.6952 32.2478 28.6952 31.3053C28.696 23.0858 28.696 14.8662 28.6952 6.64665C28.6949 5.85192 28.2046 5.24105 27.4086 5.03439ZM7.09288 26.0777C11.9325 27.5745 16.7454 27.5654 21.593 26.0756C18.0599 30.8474 10.7701 31.0162 7.09288 26.0777ZM25.9372 22.016C25.9372 22.323 25.8856 22.3738 25.5741 22.3738C21.847 22.3738 18.1203 22.3738 14.3932 22.3738C10.6722 22.3738 6.95123 22.3738 3.23028 22.3738C2.89532 22.3738 2.85449 22.3345 2.85449 22.0146C2.85449 20.4476 2.85775 18.8806 2.8498 17.3139C2.84907 17.1343 2.88123 17.0764 3.08358 17.0581C4.04796 16.9711 4.83457 16.1662 4.90828 15.2209C4.98127 14.2855 4.33449 13.3946 3.39685 13.1462C3.26424 13.1111 3.12585 13.0862 2.98927 13.0796C2.87834 13.0743 2.85016 13.041 2.85196 12.9354C2.85847 12.5322 2.85449 12.1287 2.85449 11.7252C2.85449 10.5031 2.85449 9.28136 2.85449 8.05926C2.85449 7.80067 2.92712 7.73155 3.19848 7.73155C10.6523 7.73155 18.1065 7.73155 25.5604 7.73155C25.8277 7.73155 25.8863 7.78558 25.8863 8.05155C25.8877 9.65925 25.8859 11.2673 25.8892 12.875C25.8895 12.9943 25.8541 13.0297 25.7291 13.0403C24.7228 13.1255 23.903 13.9806 23.8773 14.962C23.8509 15.9718 24.6036 16.8578 25.611 17.003C25.9369 17.05 25.9369 17.05 25.9369 17.3679C25.9376 18.917 25.9376 20.4665 25.9372 22.016Z" fill="#FFD333"/>
<path id="Vector_2" d="M7.12585 26.0686C11.9741 27.6026 16.7956 27.5932 21.6518 26.0664C18.1124 30.9569 10.8096 31.1299 7.12585 26.0686Z" fill="#2474E5"/>
<path id="Vector_3" d="M148 16.1933C147.945 16.1715 147.968 16.1241 147.964 16.0869C147.919 15.615 147.844 15.1484 147.73 14.6877C147.285 12.887 146.338 11.3677 144.976 10.086C142.351 7.61651 139.243 6.93055 135.752 7.80282C133.958 8.25089 132.498 9.25895 131.276 10.5916C129.099 12.9652 128.396 15.7357 128.988 18.8322C129.298 20.4504 130.067 21.8588 131.203 23.0735C133.198 25.2068 135.665 26.2991 138.654 26.236C140.167 26.204 141.589 25.8402 142.92 25.1482C144.811 24.1662 146.233 22.7476 147.142 20.8529C147.194 20.7434 147.217 20.6967 147.054 20.6974C145.994 20.703 144.934 20.7013 143.874 20.6981C143.779 20.6978 143.719 20.7244 143.669 20.8034C143.507 21.0574 143.323 21.2974 143.107 21.5093C141.319 23.2616 139.169 23.8139 136.722 23.2567C135.367 22.9483 134.285 22.1749 133.367 21.1771C132.59 20.3311 132.101 19.3553 131.948 18.2234C131.923 18.0385 131.977 18.0203 132.145 18.0203C137.33 18.0245 142.515 18.0238 147.7 18.0238C147.748 18.0238 147.797 18.0196 147.844 18.0245C147.943 18.035 147.963 17.9887 147.966 17.9017C147.97 17.8003 147.937 17.6929 148 17.5971C148 17.129 148 16.661 148 16.1933ZM144.605 15.3477C143.985 15.3424 143.366 15.3452 142.746 15.3452C141.283 15.3452 139.821 15.3452 138.358 15.3452C136.306 15.3452 134.253 15.3452 132.201 15.3452C131.977 15.3452 131.978 15.3452 132.024 15.1277C132.605 12.3996 135.029 10.6158 137.328 10.2944C140.687 9.82456 143.461 11.7403 144.527 14.5908C144.601 14.788 144.653 14.9926 144.727 15.1898C144.775 15.3175 144.74 15.3491 144.605 15.3477Z" fill="white"/>
<path id="Vector_4" d="M66.2872 18.0238C68.8765 18.0238 71.4657 18.0238 74.055 18.0238C76.6562 18.0238 79.2577 18.0217 81.8589 18.0284C82.0392 18.0287 82.0783 17.9695 82.0797 17.8147C82.0837 17.4003 82.1213 16.9874 82.1025 16.5716C82.0609 15.6495 81.8994 14.7509 81.5959 13.8762C81.0391 12.2699 80.0574 10.9404 78.7812 9.80428C77.2441 8.43587 75.4411 7.65062 73.3569 7.48465C72.0092 7.37729 70.69 7.50185 69.408 7.93202C67.7509 8.4878 66.3866 9.45621 65.2517 10.7387C63.1491 13.1151 62.5049 15.8646 63.1122 18.9035C63.5064 20.8754 64.5666 22.4922 66.0896 23.8322C67.9829 25.4981 70.2087 26.2918 72.7629 26.2364C74.2324 26.2044 75.617 25.8613 76.9178 25.2055C78.8552 24.2287 80.3117 22.7954 81.2447 20.8701C81.3079 20.7399 81.3083 20.6961 81.137 20.6971C80.0953 20.7035 79.0536 20.7014 78.0119 20.6989C77.9086 20.6985 77.8377 20.7178 77.7727 20.8098C76.5991 22.4613 74.9489 23.3038 72.9139 23.4483C71.0705 23.5792 69.473 22.9926 68.1061 21.795C67.0185 20.8424 66.2637 19.708 66.0643 18.2694C66.0307 18.0231 66.0238 18.0238 66.2872 18.0238ZM66.1651 15.1428C66.4328 13.8098 67.1031 12.7109 68.1654 11.8243C69.0506 11.0853 70.0418 10.5671 71.189 10.3425C73.8805 9.81586 76.5713 10.9685 78.0224 13.2639C78.3992 13.86 78.6742 14.4972 78.8784 15.1667C78.9224 15.3109 78.9051 15.3502 78.7378 15.3495C76.7505 15.3435 74.7636 15.3456 72.7763 15.3456C72.6921 15.3456 72.6075 15.3456 72.5233 15.3456C70.4638 15.3456 68.4046 15.3456 66.345 15.3456C66.1261 15.346 66.1246 15.3453 66.1651 15.1428Z" fill="white"/>
<path id="Vector_5" d="M117.088 20.8628C117.129 20.7786 117.202 20.6962 117.011 20.6972C115.945 20.7028 114.88 20.7007 113.814 20.6983C113.725 20.6979 113.675 20.7295 113.625 20.8C112.452 22.4519 110.805 23.2993 108.77 23.4467C106.906 23.5818 105.296 22.9842 103.92 21.767C102.846 20.8172 102.105 19.6881 101.907 18.2636C101.874 18.0222 101.868 18.0229 102.118 18.0229C104.714 18.0229 107.309 18.0229 109.904 18.0229C112.512 18.0229 115.119 18.0225 117.726 18.0243C117.838 18.0243 117.911 18.0239 117.921 17.879C117.993 16.8359 117.947 15.8018 117.704 14.7794C117.292 13.0503 116.424 11.5679 115.149 10.3044C112.391 7.57351 109.098 6.84825 105.369 7.90157C103.804 8.34332 102.515 9.25384 101.405 10.4026C99.2494 12.632 98.439 15.2804 98.8411 18.2885C99.0742 20.0302 99.808 21.5688 100.994 22.894C103.004 25.1396 105.523 26.3007 108.613 26.2351C110.397 26.1972 112.032 25.6972 113.534 24.7758C115.109 23.8091 116.301 22.5081 117.088 20.8628ZM101.932 15.1408C102.644 12.5861 104.307 10.9384 106.971 10.3573C109.829 9.73383 112.735 11.1426 114.077 13.7036C114.321 14.1678 114.518 14.6482 114.666 15.1485C114.683 15.2089 114.698 15.2703 114.718 15.3454C114.634 15.3454 114.569 15.3454 114.503 15.3454C110.368 15.3454 106.233 15.3454 102.098 15.3454C101.88 15.345 101.875 15.3436 101.932 15.1408Z" fill="white"/>
<path id="Vector_6" d="M92.4075 16.9561C92.3207 16.8316 92.3309 16.7551 92.4136 16.6393C94.346 13.9383 96.2744 11.2348 98.2035 8.53202C98.4113 8.24115 98.6183 7.94992 98.8445 7.63203C98.7473 7.63203 98.6841 7.63203 98.6205 7.63203C97.4642 7.63203 96.308 7.63624 95.1521 7.62747C94.9693 7.62606 94.8648 7.67975 94.763 7.82782C93.5355 9.60955 92.3005 11.3864 91.0673 13.1646C90.8429 13.4881 90.6182 13.8113 90.3927 14.1358C90.3154 14.0906 90.2875 14.0228 90.2478 13.9663C88.8018 11.905 87.3561 9.84323 85.9151 7.77869C85.8389 7.66957 85.7626 7.62747 85.625 7.62817C84.4568 7.63413 83.2886 7.63168 82.1201 7.63168C82.0619 7.63168 82.0037 7.63168 81.9163 7.63168C81.964 7.7008 81.9961 7.74782 82.0294 7.79448C84.0644 10.6464 86.0997 13.4983 88.1347 16.3505C88.2406 16.499 88.4224 16.6502 88.4231 16.8007C88.4242 16.9512 88.2439 17.1039 88.1398 17.2537C86.3798 19.7929 84.6194 22.3315 82.8597 24.8708C82.5482 25.3199 82.2386 25.7704 81.9091 26.2476C83.1473 26.2476 84.3451 26.2445 85.5433 26.2515C85.7019 26.2525 85.7897 26.2038 85.8761 26.0774C87.333 23.9389 88.7953 21.8038 90.2572 19.6684C90.2955 19.6123 90.3204 19.5435 90.3916 19.5059C90.4328 19.5656 90.4729 19.6235 90.513 19.6817C91.9778 21.8221 93.4437 23.9617 94.905 26.1041C94.9765 26.209 95.0491 26.2511 95.1799 26.2504C96.3362 26.2455 97.4924 26.248 98.6487 26.2462C98.7047 26.2462 98.7683 26.2701 98.8246 26.2153C98.7863 26.1567 98.7495 26.0971 98.7097 26.0395C96.6101 23.0108 94.5118 19.9817 92.4075 16.9561Z" fill="white"/>
<path id="Vector_7" d="M53.7966 28.766C52.5804 28.7727 51.3641 28.7656 50.1479 28.7737C49.9719 28.7748 49.8899 28.7295 49.8209 28.5656C46.9364 21.7348 44.0458 14.9065 41.1599 8.07639C41.1064 7.94973 41.0486 7.90131 40.9015 7.90236C39.6734 7.90938 38.4449 7.90622 37.2167 7.90622C37.1575 7.90622 37.0982 7.90622 37.0379 7.90622C37.0231 7.98832 37.0632 8.04376 37.087 8.10166C39.1776 13.156 41.2694 18.21 43.3607 23.2643C44.664 26.4137 45.967 29.5635 47.266 32.7147C47.3144 32.8323 47.3751 32.868 47.5026 32.8677C49.1102 32.8635 50.7181 32.8635 52.3256 32.8677C52.4481 32.868 52.5001 32.8337 52.5413 32.72C52.997 31.4603 53.4569 30.2021 53.9234 28.946C53.9776 28.7993 53.9657 28.7649 53.7966 28.766Z" fill="white"/>
<path id="Vector_8" d="M121.311 26.0213C121.311 26.156 121.343 26.1974 121.488 26.1964C122.422 26.1893 123.355 26.1876 124.288 26.1974C124.466 26.1992 124.502 26.1518 124.502 25.9858C124.496 22.5595 124.497 19.1336 124.498 15.7073C124.498 15.2747 124.516 14.8431 124.586 14.4147C124.743 13.4565 125.103 12.5923 125.841 11.9109C126.487 11.3134 127.278 10.9874 128.136 10.8007C128.253 10.7755 128.307 10.726 128.347 10.6225C128.467 10.3113 128.596 10.0035 128.723 9.69478C129.014 8.98496 129.306 8.2755 129.596 7.56568C129.677 7.36884 129.663 7.35481 129.44 7.37796C129.069 7.41691 128.697 7.44393 128.328 7.492C126.848 7.68498 125.519 8.17515 124.533 9.35654C124.481 9.2797 124.499 9.2204 124.499 9.16531C124.497 8.6976 124.493 8.22988 124.501 7.76217C124.504 7.62147 124.472 7.57235 124.315 7.5734C123.376 7.58077 122.437 7.58077 121.498 7.5734C121.341 7.57235 121.312 7.62182 121.312 7.76217C121.315 13.8488 121.315 19.935 121.311 26.0213Z" fill="white"/>
<path id="Vector_9" d="M62.5017 7.57613C61.2793 7.57613 60.057 7.57894 58.8346 7.57227C58.6915 7.57157 58.6261 7.61192 58.573 7.7414C57.4117 10.5761 56.246 13.4094 55.08 16.2424C53.7543 19.4648 52.4275 22.6868 51.1014 25.9093C51.0209 26.1051 51.0212 26.1054 51.2366 26.1058C51.8508 26.1061 52.4651 26.1058 53.079 26.1058C53.6932 26.1058 54.3075 26.1012 54.9218 26.1093C55.0576 26.111 55.1216 26.0707 55.1714 25.9482C55.7326 24.571 56.2991 23.196 56.865 21.8205C58.7898 17.1409 60.7149 12.4617 62.6397 7.7821C62.7243 7.57649 62.7243 7.57613 62.5017 7.57613Z" fill="white"/>
<path id="Vector_10" d="M132.599 28.8505C132.553 28.8617 132.506 28.8702 132.46 28.8842C130.109 29.5951 127.725 30.1484 125.268 30.3817C123.701 30.5309 122.133 30.5382 120.566 30.3951C118.701 30.2249 116.869 29.8716 115.061 29.3954C114.396 29.22 113.736 29.0273 113.033 28.8179C113.112 28.9256 113.164 29.0003 113.22 29.0726C115.093 31.48 117.549 32.9842 120.599 33.5688C121.631 33.7667 122.673 33.8144 123.722 33.7442C125.927 33.5965 127.924 32.8796 129.736 31.6677C130.871 30.9084 131.834 29.974 132.632 28.8807C132.641 28.8666 132.65 28.853 132.659 28.8389C132.636 28.827 132.615 28.8249 132.599 28.8505Z" fill="#FFD333"/>
</g>
</g>
<defs>
<clipPath id="clip0_1108_36141">
<rect width="148" height="40" fill="white"/>
</clipPath>
</defs>
</svg>
